<svg width="17" height="17" viewBox="0 0 17 17" fill="none" xmlns="http://www.w3.org/2000/svg">
<path d="M4.50004 8.50016C4.49908 9.44447 4.83224 10.3587 5.44053 11.0809C6.04883 11.8032 6.89304 12.287 7.82375 12.4466C8.75446 12.6063 9.71164 12.4315 10.5259 11.9533C11.3401 11.475 11.9589 10.7241 12.2727 9.8335H8.50004V7.16683H15.0367V9.8335H15.0334C14.4154 12.8762 11.7254 15.1668 8.50004 15.1668C4.81804 15.1668 1.83337 12.1822 1.83337 8.50016C1.83337 4.81816 4.81804 1.8335 8.50004 1.8335C9.58972 1.83272 10.6629 2.09933 11.6256 2.60994C12.5882 3.12055 13.4109 3.85957 14.0214 4.76216L11.836 6.29216C11.3616 5.5751 10.6688 5.02998 9.86028 4.73761C9.05174 4.44523 8.1705 4.42115 7.3472 4.66895C6.5239 4.91675 5.80235 5.42323 5.28951 6.11332C4.77667 6.80341 4.49984 7.64038 4.50004 8.50016Z" fill="white"/>
</svg>
