<svg width="700" height="250" viewBox="0 0 700 250" fill="none" xmlns="http://www.w3.org/2000/svg">
<path d="M92.8545 130.396C104.553 130.396 112.84 131.042 118.602 131.825C128.306 133.15 134.52 140.871 135.104 150.065C135.44 155.313 135.708 162.777 135.708 173.249C135.708 183.721 135.44 191.186 135.104 196.434C134.52 205.628 128.306 213.349 118.605 214.674C112.84 215.457 104.553 216.104 92.8545 216.104C81.1554 216.104 72.8683 215.457 67.1025 214.674C57.4023 213.349 51.189 205.627 50.6045 196.434C50.2695 191.186 50 183.721 50 173.249C50 162.777 50.2695 155.313 50.6084 150.069C51.1928 140.875 57.4022 133.15 67.1025 131.825C72.8683 131.042 81.1554 130.396 92.8545 130.396ZM190.249 130.396C200.721 130.396 208.186 130.664 213.434 130.999C222.628 131.583 230.349 137.798 231.674 147.502C232.457 153.264 233.104 161.55 233.104 173.249C233.104 184.948 232.457 193.235 231.674 199.001C230.349 208.701 222.627 214.915 213.434 215.499C208.186 215.834 200.721 216.104 190.249 216.104C179.777 216.104 172.313 215.834 167.065 215.499C157.871 214.915 150.15 208.697 148.825 198.997C148.042 193.235 147.396 184.948 147.396 173.249C147.396 161.55 148.042 153.264 148.825 147.498C150.15 137.798 157.871 131.583 167.065 130.999C172.313 130.664 179.777 130.396 190.249 130.396ZM536.327 159.282C540.095 159.282 543.541 159.868 546.665 161.04C549.789 162.212 552.489 163.946 554.764 166.243C557.038 168.54 558.807 171.378 560.07 174.755C561.334 178.109 561.965 181.957 561.965 186.299V190.503H526.679V190.95C526.679 193.11 527.104 195.006 527.954 196.637C528.804 198.245 530.01 199.497 531.572 200.393C533.134 201.288 534.995 201.736 537.154 201.736C538.647 201.736 540.003 201.53 541.221 201.116C542.438 200.703 543.484 200.094 544.356 199.29C545.229 198.486 545.884 197.498 546.32 196.326L561.793 196.774C561.15 200.243 559.737 203.264 557.555 205.837C555.395 208.387 552.558 210.375 549.043 211.799C545.528 213.2 541.462 213.9 536.845 213.9C531.308 213.9 526.53 212.809 522.51 210.627C518.513 208.422 515.434 205.286 513.274 201.22C511.138 197.131 510.069 192.272 510.069 186.644C510.069 181.176 511.149 176.398 513.309 172.309C515.468 168.196 518.512 165.003 522.44 162.729C526.369 160.431 530.998 159.282 536.327 159.282ZM297.675 169.034H298.02C298.709 167.426 299.685 165.876 300.948 164.383C302.235 162.89 303.866 161.671 305.842 160.729C307.84 159.765 310.23 159.282 313.01 159.282C316.685 159.282 320.119 160.247 323.312 162.177C326.529 164.106 329.125 167.082 331.101 171.103C333.076 175.123 334.064 180.245 334.064 186.471C334.064 192.466 333.111 197.486 331.204 201.529C329.32 205.573 326.77 208.605 323.554 210.627C320.361 212.648 316.811 213.659 312.906 213.659C310.241 213.659 307.932 213.223 305.979 212.35C304.027 211.477 302.384 210.329 301.052 208.904C299.742 207.48 298.732 205.951 298.02 204.32H297.503V212.901H280.824V142.329H297.675V169.034ZM503.387 212.901H486.709V204.32H486.191C485.479 205.951 484.469 207.48 483.159 208.904C481.85 210.328 480.207 211.477 478.231 212.35C476.279 213.222 473.97 213.659 471.306 213.659C467.4 213.659 463.85 212.649 460.657 210.627C457.464 208.605 454.915 205.572 453.008 201.529C451.101 197.486 450.147 192.467 450.147 186.471C450.147 180.245 451.136 175.123 453.111 171.103C455.087 167.082 457.671 164.106 460.864 162.177C464.08 160.247 467.538 159.282 471.236 159.282C474.016 159.282 476.394 159.765 478.369 160.729C480.345 161.671 481.976 162.89 483.263 164.383C484.549 165.876 485.525 167.426 486.191 169.034H486.536V142.329H503.387V212.901ZM357.804 190.399C357.827 193.271 358.585 195.534 360.078 197.188C361.571 198.842 363.605 199.669 366.178 199.669C367.855 199.669 369.359 199.301 370.691 198.566C372.047 197.808 373.115 196.716 373.896 195.292C374.7 193.845 375.103 192.099 375.103 190.055V159.972H391.919V212.901H375.86V203.046H375.31C374.138 206.285 372.139 208.858 369.313 210.765C366.511 212.648 363.122 213.59 359.147 213.59C355.541 213.59 352.37 212.763 349.637 211.109C346.903 209.455 344.779 207.146 343.263 204.183C341.747 201.196 340.976 197.704 340.953 193.707V159.972H357.804V190.399ZM417.554 212.901H400.703V159.972H417.554V212.901ZM443.189 212.901H426.339V142.329H443.189V212.901ZM597.887 159.248C598.668 159.248 599.472 159.306 600.299 159.421C601.126 159.513 601.895 159.661 602.607 159.868V174.514C601.803 174.238 600.747 174.019 599.438 173.858C598.151 173.698 597.002 173.617 595.991 173.617C593.993 173.617 592.189 174.066 590.581 174.962C588.996 175.835 587.744 177.064 586.825 178.648C585.929 180.211 585.481 182.049 585.481 184.162V212.901H568.631V159.972H584.999V169.62H585.55C586.515 166.128 588.089 163.533 590.271 161.833C592.454 160.11 594.992 159.248 597.887 159.248ZM307.082 172.446C305.015 172.446 303.258 173.009 301.811 174.135C300.363 175.26 299.249 176.868 298.468 178.959C297.71 181.049 297.33 183.542 297.33 186.437C297.33 189.285 297.71 191.766 298.468 193.88C299.249 195.993 300.363 197.636 301.811 198.808C303.281 199.956 305.038 200.53 307.082 200.53C309.149 200.53 310.907 199.956 312.354 198.808C313.802 197.636 314.893 195.993 315.628 193.88C316.386 191.766 316.766 189.285 316.766 186.437C316.766 183.588 316.386 181.118 315.628 179.027C314.893 176.937 313.802 175.318 312.354 174.169C310.93 173.02 309.172 172.446 307.082 172.446ZM477.163 172.446C475.073 172.446 473.304 173.02 471.856 174.169C470.409 175.318 469.307 176.937 468.549 179.027C467.814 181.118 467.446 183.588 467.446 186.437C467.446 189.285 467.825 191.766 468.583 193.88C469.341 195.993 470.432 197.636 471.856 198.808C473.304 199.956 475.073 200.53 477.163 200.53C479.208 200.53 480.954 199.956 482.401 198.808C483.849 197.636 484.963 195.993 485.744 193.88C486.525 191.766 486.915 189.285 486.915 186.437C486.915 183.542 486.525 181.049 485.744 178.959C484.986 176.869 483.872 175.26 482.401 174.135C480.954 173.009 479.208 172.446 477.163 172.446ZM536.672 171.446C534.788 171.446 533.1 171.872 531.606 172.722C530.113 173.549 528.931 174.686 528.058 176.133C527.229 177.485 526.773 179.012 526.689 180.716H546.286C546.263 178.924 545.839 177.328 545.012 175.927C544.185 174.525 543.047 173.433 541.6 172.652C540.175 171.848 538.533 171.446 536.672 171.446ZM409.146 137.711C411.535 137.711 413.568 138.504 415.245 140.089C416.945 141.651 417.795 143.535 417.795 145.74C417.795 147.968 416.945 149.875 415.245 151.46C413.568 153.022 411.535 153.804 409.146 153.804C406.779 153.804 404.747 153.022 403.047 151.46C401.347 149.875 400.497 147.969 400.497 145.74C400.497 143.535 401.347 141.651 403.047 140.089C404.747 138.504 406.78 137.711 409.146 137.711ZM92.8545 33C104.55 33 112.84 33.6466 118.605 34.4297C128.306 35.7542 134.52 43.476 135.104 52.6699C135.44 57.9176 135.708 65.3826 135.708 75.8545C135.708 86.3262 135.44 93.7905 135.104 99.0381C134.52 108.232 128.306 115.954 118.602 117.278C112.84 118.061 104.553 118.708 92.8545 118.708C81.1554 118.708 72.8683 118.061 67.1025 117.278C57.4022 115.954 51.1928 108.228 50.6084 99.0342C50.2695 93.7905 50 86.3262 50 75.8545C50 65.3826 50.2695 57.9176 50.6045 52.6699C51.189 43.4761 57.4023 35.7544 67.1025 34.4297C72.8683 33.6466 81.1593 33 92.8545 33ZM181.706 38.3926C185.399 31.6411 195.1 31.6411 198.793 38.3926L206.554 52.5811C208.162 55.5226 210.581 57.941 213.522 59.5498L227.712 67.3105C234.463 71.0038 234.463 80.7041 227.712 84.3975L213.522 92.1582C210.581 93.7671 208.163 96.1861 206.554 99.1279L198.793 113.316C195.1 120.068 185.399 120.068 181.706 113.316L173.945 99.1279C172.336 96.186 169.918 93.7671 166.976 92.1582L152.787 84.3975C146.036 80.7042 146.036 71.0038 152.787 67.3105L166.976 59.5498C169.917 57.941 172.336 55.5228 173.945 52.5811L181.706 38.3926ZM366.315 52.2822C370.083 52.2822 373.529 52.8684 376.653 54.04C379.778 55.2116 382.477 56.946 384.751 59.2432C387.025 61.5404 388.794 64.3779 390.058 67.7549C391.321 71.1089 391.953 74.957 391.953 79.2988V83.5029H356.667V83.9502C356.667 86.1096 357.091 88.0056 357.941 89.6367C358.791 91.2448 359.998 92.4967 361.561 93.3926C363.123 94.2884 364.983 94.7363 367.143 94.7363C368.636 94.7363 369.991 94.5297 371.209 94.1162C372.426 93.7027 373.472 93.094 374.345 92.29C375.218 91.486 375.872 90.4978 376.309 89.3262L391.781 89.7744C391.138 93.2433 389.724 96.264 387.542 98.8369C385.383 101.387 382.546 103.375 379.031 104.799C375.516 106.2 371.45 106.9 366.832 106.9C361.296 106.9 356.517 105.809 352.497 103.627C348.5 101.422 345.422 98.2857 343.263 94.2197C341.126 90.1306 340.058 85.2717 340.058 79.6436C340.058 74.1761 341.138 69.3977 343.297 65.3086C345.456 61.1965 348.5 58.0028 352.429 55.7285C356.357 53.4313 360.986 52.2822 366.315 52.2822ZM421.017 52.2822C428.184 52.2822 433.836 53.7875 437.971 56.7969C442.106 59.7833 444.392 63.8952 444.828 69.1328L429.356 69.5469C429.196 68.4442 428.759 67.4672 428.047 66.6172C427.335 65.7444 426.404 65.0673 425.256 64.585C424.13 64.0796 422.82 63.8262 421.327 63.8262C419.375 63.8262 417.709 64.2171 416.331 64.998C414.976 65.7791 414.309 66.8357 414.332 68.168C414.309 69.2017 414.722 70.0983 415.572 70.8564C416.445 71.6145 417.996 72.2232 420.225 72.6826L430.425 74.6123C435.708 75.6231 439.637 77.3004 442.21 79.6436C444.806 81.9867 446.115 85.0881 446.138 88.9473C446.115 92.5769 445.035 95.736 442.898 98.4238C440.785 101.111 437.89 103.202 434.215 104.695C430.539 106.166 426.335 106.9 421.603 106.9C414.045 106.9 408.084 105.349 403.719 102.248C399.377 99.1237 396.896 94.9429 396.275 89.7051L412.919 89.292C413.287 91.2216 414.24 92.6914 415.779 93.7021C417.318 94.713 419.283 95.2188 421.672 95.2188C423.831 95.2187 425.589 94.8167 426.944 94.0127C428.3 93.2087 428.989 92.14 429.012 90.8076C428.989 89.6133 428.46 88.6603 427.427 87.9482C426.393 87.2131 424.773 86.6381 422.567 86.2246L413.333 84.4678C408.026 83.5029 404.074 81.7219 401.479 79.126C398.883 76.5071 397.596 73.1759 397.619 69.1328C397.596 65.5951 398.539 62.5743 400.445 60.0703C402.352 57.5434 405.062 55.6136 408.577 54.2812C412.092 52.9489 416.238 52.2823 421.017 52.2822ZM624.362 52.2822C628.13 52.2822 631.576 52.8684 634.7 54.04C637.824 55.2116 640.524 56.946 642.798 59.2432C645.072 61.5404 646.841 64.3779 648.104 67.7549C649.368 71.1089 650 74.957 650 79.2988V83.5029H614.714V83.9502C614.714 86.1096 615.138 88.0056 615.988 89.6367C616.838 91.2448 618.045 92.4967 619.607 93.3926C621.169 94.2884 623.03 94.7363 625.189 94.7363C626.683 94.7363 628.038 94.5297 629.256 94.1162C630.473 93.7027 631.519 93.094 632.392 92.29C633.265 91.486 633.919 90.4978 634.355 89.3262L649.828 89.7744C649.185 93.2433 647.771 96.264 645.589 98.8369C643.429 101.387 640.593 103.375 637.078 104.799C633.563 106.2 629.496 106.9 624.879 106.9C619.343 106.9 614.564 105.809 610.544 103.627C606.547 101.422 603.469 98.2857 601.31 94.2197C599.173 90.1306 598.105 85.2717 598.104 79.6436C598.104 74.1761 599.184 69.3977 601.344 65.3086C603.503 61.1965 606.547 58.0028 610.476 55.7285C614.404 53.4313 619.033 52.2822 624.362 52.2822ZM469.344 83.3994C469.367 86.2709 470.125 88.5335 471.618 90.1875C473.111 91.8415 475.145 92.6689 477.718 92.6689C479.395 92.6689 480.899 92.3014 482.231 91.5664C483.587 90.8083 484.655 89.7163 485.437 88.292C486.24 86.8448 486.643 85.099 486.643 83.0547V52.9717H503.458V105.901H487.4V96.0459H486.849C485.677 99.2849 483.679 101.858 480.854 103.765C478.051 105.648 474.662 106.59 470.688 106.59C467.081 106.59 463.91 105.763 461.177 104.109C458.443 102.455 456.318 100.146 454.802 97.1826C453.286 94.1962 452.516 90.7042 452.493 86.707V52.9717H469.344V83.3994ZM309.977 35.3291C315.26 35.3291 319.821 36.2818 323.657 38.1885C327.517 40.0722 330.492 42.7835 332.582 46.3213C334.673 49.8361 335.718 54.0058 335.718 58.8301C335.718 63.723 334.65 67.8809 332.514 71.3037C330.393 74.6792 327.387 77.2603 323.5 79.0508L338.13 105.901H319.522L306.618 81.7451H297.882V105.901H280.824V35.3291H309.977ZM574.752 52.2822C579.76 52.2822 583.826 53.8905 586.95 57.1064C590.074 60.2997 591.637 64.6881 591.637 70.2705V105.901H574.786V74.1299C574.786 71.4882 574.109 69.478 572.754 68.0996C571.399 66.6983 569.641 65.9971 567.481 65.9971C565.161 65.9971 563.334 66.7553 562.002 68.2715C560.693 69.7647 560.038 71.7749 560.038 74.3018V105.901H543.842V73.957C543.842 71.4992 543.176 69.558 541.844 68.1338C540.511 66.7095 538.754 65.9971 536.571 65.9971C535.101 65.9971 533.803 66.3534 532.678 67.0654C531.552 67.7546 530.668 68.7428 530.024 70.0293C529.404 71.3158 529.094 72.8322 529.094 74.5781V105.901H512.243V52.9717H528.267V62.6895H528.853C529.955 59.4734 531.816 56.935 534.435 55.0742C537.053 53.2134 540.178 52.2822 543.808 52.2822C547.483 52.2822 550.63 53.2247 553.249 55.1084C555.868 56.9922 557.534 59.5192 558.246 62.6895H558.798C559.786 59.5422 561.715 57.0263 564.587 55.1426C567.458 53.236 570.847 52.2822 574.752 52.2822ZM366.66 64.4463C364.776 64.4463 363.088 64.8717 361.595 65.7217C360.102 66.5487 358.918 67.6856 358.045 69.1328C357.216 70.4845 356.761 72.0124 356.678 73.7158H376.274C376.251 71.9242 375.826 70.3279 374.999 68.9268C374.172 67.5254 373.035 66.4334 371.588 65.6523C370.164 64.8483 368.521 64.4463 366.66 64.4463ZM624.707 64.4463C622.823 64.4463 621.135 64.8717 619.642 65.7217C618.148 66.5487 616.965 67.6856 616.092 69.1328C615.263 70.4845 614.808 72.0124 614.725 73.7158H634.321C634.298 71.9242 633.873 70.3279 633.046 68.9268C632.219 67.5254 631.082 66.4334 629.635 65.6523C628.21 64.8483 626.568 64.4463 624.707 64.4463ZM297.882 68.3057H306.29C308.863 68.3057 311.011 67.9728 312.733 67.3066C314.479 66.6175 315.8 65.5834 316.696 64.2051C317.592 62.8038 318.04 61.0123 318.04 58.8301C318.04 56.6477 317.592 54.8442 316.696 53.4199C315.8 51.9726 314.479 50.8928 312.733 50.1807C310.988 49.4456 308.84 49.0781 306.29 49.0781H297.882V68.3057Z" fill="black"/>
</svg>
